<svg width="72" height="24" viewBox="0 0 72 24" fill="none" xmlns="http://www.w3.org/2000/svg">
<rect width="72" height="24" rx="8" fill="#FF754C"/>
<path d="M36.8751 17V7.54545H38.3016V15.772H42.5857V17H36.8751ZM44.1022 17V9.90909H45.4826V17H44.1022ZM44.7993 8.81499C44.5593 8.81499 44.3531 8.73497 44.1807 8.57493C44.0114 8.41181 43.9268 8.21792 43.9268 7.99325C43.9268 7.76551 44.0114 7.57161 44.1807 7.41158C44.3531 7.24846 44.5593 7.1669 44.7993 7.1669C45.0394 7.1669 45.244 7.24846 45.4133 7.41158C45.5857 7.57161 45.6718 7.76551 45.6718 7.99325C45.6718 8.21792 45.5857 8.41181 45.4133 8.57493C45.244 8.73497 45.0394 8.81499 44.7993 8.81499ZM53.4056 9.90909L50.8342 17H49.3569L46.7809 9.90909H48.2628L50.0586 15.3658H50.1325L51.9237 9.90909H53.4056ZM57.5177 17.1431C56.8191 17.1431 56.2174 16.9938 55.7127 16.6953C55.211 16.3937 54.8232 15.9705 54.5493 15.4258C54.2785 14.878 54.1431 14.2363 54.1431 13.5007C54.1431 12.7744 54.2785 12.1342 54.5493 11.5803C54.8232 11.0263 55.2049 10.5939 55.6942 10.283C56.1866 9.97218 56.7621 9.81676 57.4208 9.81676C57.8209 9.81676 58.2086 9.88293 58.5841 10.0153C58.9596 10.1476 59.2966 10.3554 59.5951 10.6385C59.8937 10.9216 60.1291 11.2894 60.3014 11.7418C60.4738 12.1912 60.56 12.7375 60.56 13.3807V13.87H54.9233V12.8359H59.2073C59.2073 12.4728 59.1335 12.1512 58.9858 11.8711C58.838 11.5879 58.6303 11.3648 58.3625 11.2017C58.0978 11.0386 57.787 10.957 57.43 10.957C57.0422 10.957 56.7037 11.0524 56.4144 11.2433C56.1282 11.431 55.9066 11.6772 55.7496 11.9819C55.5957 12.2835 55.5188 12.6113 55.5188 12.9652V13.7731C55.5188 14.247 55.6019 14.6502 55.7681 14.9826C55.9373 15.315 56.1728 15.5689 56.4744 15.7443C56.776 15.9167 57.1284 16.0028 57.5316 16.0028C57.7932 16.0028 58.0317 15.9659 58.2471 15.892C58.4626 15.8151 58.6487 15.7012 58.8057 15.5504C58.9627 15.3996 59.0827 15.2134 59.1658 14.9918L60.4723 15.2273C60.3676 15.612 60.1799 15.949 59.909 16.2383C59.6413 16.5245 59.3043 16.7476 58.898 16.9077C58.4949 17.0646 58.0348 17.1431 57.5177 17.1431Z" fill="white"/>
<path d="M19.3276 13.0498C21.4752 10.904 24.9551 10.904 27.1026 13.0498" stroke="white" stroke-width="2" stroke-linecap="round" stroke-linejoin="round"/>
<circle cx="23.2166" cy="16" r="1" stroke="white" stroke-width="2" stroke-linecap="round" stroke-linejoin="round"/>
<path d="M16.4985 10.9045C20.2083 7.19589 26.2218 7.19589 29.9315 10.9045" stroke="white" stroke-width="2" stroke-linecap="round" stroke-linejoin="round"/>
</svg>
