<svg width="24" height="25" viewBox="0 0 24 25" fill="none" xmlns="http://www.w3.org/2000/svg">
<g clip-path="url(#clip0_46_6063)">
<path opacity="0.3" d="M11.2001 15.7158C7.6001 12.0158 7.0001 6.41582 9.6001 2.21582C7.6001 2.61582 5.7001 3.61582 4.2001 5.21582C-0.0999024 9.51582 -0.0999024 16.5158 4.2001 20.8158C8.5001 25.1158 15.5001 25.1158 19.8001 20.8158C20.4001 20.2158 21.0001 19.5158 21.4001 18.8158C17.8001 19.4158 14.0001 18.4158 11.2001 15.7158Z" stroke="white" stroke-width="2" stroke-miterlimit="10" stroke-linecap="round" stroke-linejoin="round"/>
<path opacity="0.3" d="M22 10.9158C20.6 9.51577 17.4 9.51577 16 10.9158C17.4 9.51577 17.4 6.31577 16 4.91577C17.4 6.31577 20.6 6.31577 22 4.91577C20.6 6.31577 20.6 9.51577 22 10.9158Z" stroke="white" stroke-width="2" stroke-miterlimit="10" stroke-linecap="round" stroke-linejoin="round"/>
</g>
<defs>
<clipPath id="clip0_46_6063">
<rect width="24" height="24" fill="white" transform="translate(0 0.915771)"/>
</clipPath>
</defs>
</svg>
