<svg width="24" height="24" viewBox="0 0 24 24" fill="none" xmlns="http://www.w3.org/2000/svg">
<circle cx="12" cy="12" r="8" fill="url(#paint0_linear_46_1984)"/>
<path d="M9.1598 16V15.0455L12.1129 11.9858C12.4283 11.6534 12.6882 11.3622 12.8928 11.1122C13.1001 10.8594 13.255 10.6193 13.3572 10.392C13.4595 10.1648 13.5107 9.9233 13.5107 9.66761C13.5107 9.37784 13.4425 9.12784 13.3061 8.91761C13.1697 8.70455 12.9837 8.54119 12.7479 8.42756C12.5121 8.31108 12.2464 8.25284 11.951 8.25284C11.6385 8.25284 11.3658 8.31676 11.1328 8.4446C10.8999 8.57244 10.7209 8.75284 10.5959 8.9858C10.4709 9.21875 10.4084 9.49148 10.4084 9.80398H9.15128C9.15128 9.27273 9.27344 8.80824 9.51776 8.41051C9.76207 8.01278 10.0973 7.70455 10.5234 7.4858C10.9496 7.2642 11.4339 7.15341 11.9766 7.15341C12.5249 7.15341 13.0078 7.26278 13.4254 7.48153C13.8459 7.69744 14.174 7.9929 14.4098 8.3679C14.6456 8.74006 14.7635 9.16051 14.7635 9.62926C14.7635 9.95312 14.7024 10.2699 14.5803 10.5795C14.4609 10.8892 14.2521 11.2344 13.9538 11.6151C13.6555 11.9929 13.2408 12.4517 12.7095 12.9915L10.9751 14.8068V14.8707H14.9041V16H9.1598Z" fill="white"/>
<defs>
<linearGradient id="paint0_linear_46_1984" x1="20" y1="20" x2="20" y2="4" gradientUnits="userSpaceOnUse">
<stop stop-color="#FF544D"/>
<stop offset="1" stop-color="#FF754C"/>
</linearGradient>
</defs>
</svg>
