<svg width="126" height="57" viewBox="0 0 126 57" fill="none" xmlns="http://www.w3.org/2000/svg">
<rect x="0.875977" y="0.159424" width="125" height="56" rx="16" fill="#FF754C"/>
<path d="M24.9355 24.1594V31.1594H22.9355V24.1594H19.9355L23.9355 20.1594L27.9355 24.1594H24.9355Z" fill="white"/>
<path d="M30.9356 36.1594H16.9356C16.6486 36.1594 16.3756 36.0364 16.1856 35.8214C15.9956 35.6064 15.9076 35.3204 15.9426 35.0354L16.9426 27.0354C17.0056 26.5344 17.4316 26.1594 17.9356 26.1594H20.9356V28.1594H18.8186L18.0686 34.1594H29.8026L29.0526 28.1594H26.9356V26.1594H29.9356C30.4396 26.1594 30.8656 26.5344 30.9276 27.0354L31.9276 35.0354C31.9636 35.3204 31.8746 35.6064 31.6846 35.8214C31.4956 36.0364 31.2226 36.1594 30.9356 36.1594Z" fill="white"/>
<path d="M41.1639 33.1594V22.9776H43.0084V31.6133H47.4928V33.1594H41.1639ZM49.0141 33.1594V25.5231H50.8138V33.1594H49.0141ZM49.9189 24.4393C49.6339 24.4393 49.3886 24.3448 49.1831 24.1559C48.9776 23.9636 48.8749 23.7333 48.8749 23.4648C48.8749 23.193 48.9776 22.9627 49.1831 22.7738C49.3886 22.5815 49.6339 22.4854 49.9189 22.4854C50.2073 22.4854 50.4525 22.5815 50.6547 22.7738C50.8602 22.9627 50.9629 23.193 50.9629 23.4648C50.9629 23.7333 50.8602 23.9636 50.6547 24.1559C50.4525 24.3448 50.2073 24.4393 49.9189 24.4393ZM59.4855 25.5231L56.766 33.1594H54.7774L52.0579 25.5231H53.977L55.7319 31.1956H55.8115L57.5714 25.5231H59.4855ZM63.8518 33.3086C63.0862 33.3086 62.4249 33.1495 61.8681 32.8313C61.3146 32.5098 60.8887 32.0557 60.5904 31.4691C60.2921 30.8791 60.143 30.1848 60.143 29.386C60.143 28.6005 60.2921 27.9111 60.5904 27.3178C60.892 26.7212 61.313 26.2572 61.8532 25.9258C62.3935 25.591 63.0282 25.4236 63.7573 25.4236C64.228 25.4236 64.6721 25.4999 65.0897 25.6523C65.5106 25.8015 65.8819 26.0335 66.2033 26.3483C66.5282 26.6632 66.7834 27.0643 66.969 27.5515C67.1546 28.0354 67.2474 28.6121 67.2474 29.2816V29.8334H60.9881V28.6204H65.5222C65.5189 28.2757 65.4444 27.9691 65.2985 27.7006C65.1527 27.4288 64.9488 27.2151 64.687 27.0593C64.4285 26.9035 64.1269 26.8256 63.7822 26.8256C63.4143 26.8256 63.0911 26.9151 62.8127 27.0941C62.5343 27.2697 62.3172 27.5018 62.1614 27.7901C62.009 28.0751 61.9311 28.3884 61.9278 28.7297V29.7887C61.9278 30.2328 62.009 30.614 62.1714 30.9322C62.3338 31.247 62.5608 31.489 62.8525 31.658C63.1442 31.8237 63.4855 31.9066 63.8766 31.9066C64.1385 31.9066 64.3755 31.8701 64.5876 31.7972C64.7997 31.721 64.9836 31.6099 65.1394 31.4641C65.2952 31.3183 65.4129 31.1376 65.4924 30.9222L67.1728 31.1111C67.0667 31.5553 66.8646 31.943 66.5663 32.2745C66.2713 32.6026 65.8935 32.8578 65.4328 33.0401C64.972 33.2191 64.4451 33.3086 63.8518 33.3086ZM80.6893 22.9776V33.1594H79.0487L74.2511 26.2241H74.1666V33.1594H72.3221V22.9776H73.9727L78.7653 29.9179H78.8548V22.9776H80.6893ZM85.9505 33.3086C85.2048 33.3086 84.5585 33.1445 84.0116 32.8164C83.4647 32.4883 83.0405 32.0292 82.7389 31.4393C82.4406 30.8493 82.2914 30.1599 82.2914 29.3711C82.2914 28.5822 82.4406 27.8912 82.7389 27.2979C83.0405 26.7046 83.4647 26.2439 84.0116 25.9158C84.5585 25.5877 85.2048 25.4236 85.9505 25.4236C86.6962 25.4236 87.3426 25.5877 87.8894 25.9158C88.4363 26.2439 88.8589 26.7046 89.1572 27.2979C89.4588 27.8912 89.6096 28.5822 89.6096 29.3711C89.6096 30.1599 89.4588 30.8493 89.1572 31.4393C88.8589 32.0292 88.4363 32.4883 87.8894 32.8164C87.3426 33.1445 86.6962 33.3086 85.9505 33.3086ZM85.9604 31.8668C86.3648 31.8668 86.7029 31.7558 86.9747 31.5337C87.2464 31.3083 87.4486 31.0067 87.5812 30.6289C87.7171 30.251 87.785 29.8301 87.785 29.3661C87.785 28.8988 87.7171 28.4762 87.5812 28.0983C87.4486 27.7172 87.2464 27.4139 86.9747 27.1885C86.7029 26.9632 86.3648 26.8505 85.9604 26.8505C85.5462 26.8505 85.2015 26.9632 84.9264 27.1885C84.6546 27.4139 84.4507 27.7172 84.3149 28.0983C84.1823 28.4762 84.116 28.8988 84.116 29.3661C84.116 29.8301 84.1823 30.251 84.3149 30.6289C84.4507 31.0067 84.6546 31.3083 84.9264 31.5337C85.2015 31.7558 85.5462 31.8668 85.9604 31.8668ZM92.4944 33.1594L90.3367 25.5231H92.1712L93.5135 30.8924H93.5831L94.9553 25.5231H96.7699L98.1421 30.8625H98.2167L99.5391 25.5231H101.379L99.216 33.1594H97.3417L95.9098 27.9989H95.8054L94.3736 33.1594H92.4944Z" fill="white"/>
</svg>
